<svg id="Layer_1" data-name="Layer 1" xmlns="http://www.w3.org/2000/svg" viewBox="0 0 318.02 183.76"><defs><style>.cls-1{fill:#fff;}.cls-1,.cls-2{stroke:#0a0aff;stroke-miterlimit:10;stroke-width:2px;}.cls-2{fill:#0a0aff;}</style></defs><path class="cls-1" d="M410,341.46v1.42H94v-1.76c93.13,5.66,157.64-48.31,158-88.37v.32C252.34,293.12,316.86,347.12,410,341.46Z" transform="translate(-92.99 -160.12)"/><polygon class="cls-1" points="80 82.53 96.19 91.88 80.01 101.23 63.82 110.57 63.82 73.19 80 82.53"/><polygon class="cls-1" points="247.16 82.53 263.35 91.88 247.16 101.23 230.97 110.57 230.97 73.19 247.16 82.53"/><path class="cls-1" d="M410,161.12v1.34c-93.57-5.09-157.64,49.73-158,89.94,0-40.24-64.17-95.39-158-90.28v-1Z" transform="translate(-92.99 -160.12)"/><path class="cls-1" d="M252,252" transform="translate(-92.99 -160.12)"/><path class="cls-2" d="M94,162.12v179c93.13,5.66,157.64-48.31,158-88.37v-.35C252,212.16,187.83,157,94,162.12Zm79,99.23-16.19,9.34V233.31L173,242.65,189.18,252Z" transform="translate(-92.99 -160.12)"/><polygon class="cls-1" points="96.19 91.88 80.01 101.23 63.82 110.57 63.82 73.19 80 82.53 96.19 91.88"/><path class="cls-2" d="M252,252.4v.67c.34,40.05,64.86,94.05,158,88.39v-179C316.44,157.37,252.37,212.19,252,252.4Zm88.15,9L324,270.69V233.31l16.19,9.34L356.34,252Z" transform="translate(-92.99 -160.12)"/><polygon class="cls-1" points="263.35 91.88 247.16 101.23 230.97 110.57 230.97 73.19 247.16 82.53 263.35 91.88"/><polygon class="cls-1" points="146.82 46.12 146.82 27.43 146.82 8.73 163.01 18.08 179.2 27.43 163.01 36.77 146.82 46.12"/><polygon class="cls-1" points="96.19 91.88 80.01 101.23 63.82 110.57 63.82 73.19 80 82.53 96.19 91.88"/><polygon class="cls-1" points="263.35 91.88 247.16 101.23 230.97 110.57 230.97 73.19 247.16 82.53 263.35 91.88"/><polygon class="cls-1" points="146.82 175.03 146.82 156.34 146.82 137.64 163.01 146.99 179.2 156.34 163.01 165.68 146.82 175.03"/></svg>